name rise38.3101peak57.3503fall81.6963.mot
datacolumns 19
datarows 26
range 20.68658900000000 20.72826000000000
endheader
time	ground_force1_vx	ground_force1_vy	ground_force1_vz	ground_force1_px	ground_force1_py	ground_force1_pz	ground_force2_vx	ground_force2_vy	ground_force2_vz	ground_force2_px	ground_force2_py	ground_force2_pz	ground_torque1_x	ground_torque1_y	ground_torque1_z	ground_torque2_x	ground_torque2_y	ground_torque2_z	
20.68658900000000	-50.07506900000000	795.23743200000001	66.68073699999999	0.11702300000000	0.00000000000000	0.11902600000000	-12.62778700000000	38.16681700000000	9.56720400000000	0.36908200000000	0.00000000000000	-0.06231100000000	0.00000000000000	27.68000000000000	0.00000000000000	0.00000000000000	5.75211200000000	0.00000000000000	
20.68826000000000	-49.94427300000000	791.47505400000000	66.12886500000000	0.11671300000000	0.00000000000000	0.11894700000000	-13.93200000000000	44.12162400000000	10.76059400000000	0.37115500000000	0.00000000000000	-0.06295300000000	0.00000000000000	27.46752200000000	0.00000000000000	0.00000000000000	6.52728200000000	0.00000000000000	
20.68992700000000	-49.82407300000000	787.63197200000002	65.54566199999999	0.11641800000000	0.00000000000000	0.11886000000000	-15.02532600000000	49.99939400000000	11.84842400000000	0.37328000000000	0.00000000000000	-0.06355500000000	0.00000000000000	27.25353400000000	0.00000000000000	0.00000000000000	7.25539700000000	0.00000000000000	
20.69160300000000	-49.71544900000000	783.71176900000000	64.93179000000001	0.11613800000000	0.00000000000000	0.11876500000000	-15.87589500000000	55.71565100000000	12.80648800000000	0.37544500000000	0.00000000000000	-0.06412100000000	0.00000000000000	27.03837100000000	0.00000000000000	0.00000000000000	7.92173300000000	0.00000000000000	
20.69325600000000	-49.61935700000000	779.71797100000003	64.28796199999999	0.11587400000000	0.00000000000000	0.11866200000000	-16.46536100000000	61.21187700000000	13.61918100000000	0.37764000000000	0.00000000000000	-0.06465600000000	0.00000000000000	26.82236400000000	0.00000000000000	0.00000000000000	8.51617600000000	0.00000000000000	
20.69493000000000	-49.53672500000000	775.65403500000002	63.61494500000000	0.11562700000000	0.00000000000000	0.11855000000000	-16.78868900000000	66.45679500000000	14.27957200000000	0.37985400000000	0.00000000000000	-0.06516200000000	0.00000000000000	26.60583000000000	0.00000000000000	0.00000000000000	9.03337600000000	0.00000000000000	
20.69659600000000	-49.46844600000000	771.52332600000000	62.91355300000000	0.11539600000000	0.00000000000000	0.11843000000000	-16.85287900000000	71.44518300000000	14.78875600000000	0.38207900000000	0.00000000000000	-0.06564400000000	0.00000000000000	26.38907700000000	0.00000000000000	0.00000000000000	9.47249900000000	0.00000000000000	
20.69825800000000	-49.41538000000000	767.32911500000000	62.18464500000000	0.11518200000000	0.00000000000000	0.11830000000000	-16.67491000000000	76.19475199999999	15.15465500000000	0.38430500000000	0.00000000000000	-0.06610300000000	0.00000000000000	26.17239600000000	0.00000000000000	0.00000000000000	9.83664900000000	0.00000000000000	
20.69992600000000	-49.37834500000000	763.07455400000003	61.42912300000000	0.11498500000000	0.00000000000000	0.11816200000000	-16.27921700000000	80.74166600000000	15.39045500000000	0.38652300000000	0.00000000000000	-0.06654300000000	0.00000000000000	25.95606900000000	0.00000000000000	0.00000000000000	10.13206600000000	0.00000000000000	
20.70159700000000	-49.35811400000000	758.76266999999996	60.64792900000000	0.11480500000000	0.00000000000000	0.11801400000000	-15.69497800000000	85.13530700000000	15.51289100000000	0.38872500000000	0.00000000000000	-0.06696600000000	0.00000000000000	25.74035700000000	0.00000000000000	0.00000000000000	10.36719800000000	0.00000000000000	
20.70325700000000	-49.35541400000000	754.39635099999998	59.84203700000000	0.11464100000000	0.00000000000000	0.11785600000000	-14.95347200000000	89.43286200000000	15.54052900000000	0.39090500000000	0.00000000000000	-0.06737300000000	0.00000000000000	25.52550900000000	0.00000000000000	0.00000000000000	10.55174900000000	0.00000000000000	
20.70492200000000	-49.37091500000000	749.97833100000003	59.01245700000000	0.11449400000000	0.00000000000000	0.11768900000000	-14.08571500000000	93.69419400000000	15.49219000000000	0.39305400000000	0.00000000000000	-0.06776700000000	0.00000000000000	25.31175400000000	0.00000000000000	0.00000000000000	10.69578400000000	0.00000000000000	
20.70659700000000	-49.40523200000000	745.51118199999996	58.16022600000000	0.11436400000000	0.00000000000000	0.11751300000000	-13.12050500000000	97.97734800000001	15.38562500000000	0.39516600000000	0.00000000000000	-0.06814800000000	0.00000000000000	25.09930300000000	0.00000000000000	0.00000000000000	10.80895100000000	0.00000000000000	
20.70826100000000	-49.45891800000000	740.99730000000000	57.28640700000000	0.11424900000000	0.00000000000000	0.11732700000000	-12.08297200000000	102.33495600000001	15.23649400000000	0.39723500000000	0.00000000000000	-0.06851800000000	0.00000000000000	24.88834900000000	0.00000000000000	0.00000000000000	10.89985700000000	0.00000000000000	
20.70992400000000	-49.53245900000000	736.43889899999999	56.39208500000000	0.11415000000000	0.00000000000000	0.11713100000000	-10.99363900000000	106.81164000000000	15.05767800000000	0.39925500000000	0.00000000000000	-0.06887900000000	0.00000000000000	24.67906400000000	0.00000000000000	0.00000000000000	10.97563500000000	0.00000000000000	
20.71159500000000	-49.62627100000000	731.83799799999997	55.47836400000000	0.11406600000000	0.00000000000000	0.11692500000000	-9.86799400000000	111.44244700000000	14.85891400000000	0.40122200000000	0.00000000000000	-0.06923100000000	0.00000000000000	24.47160100000000	0.00000000000000	0.00000000000000	11.04168800000000	0.00000000000000	
20.71325500000000	-49.74069600000000	727.19641600000000	54.54636200000000	0.11399500000000	0.00000000000000	0.11671000000000	-8.71650000000000	116.25224100000000	14.64673300000000	0.40312900000000	0.00000000000000	-0.06957500000000	0.00000000000000	24.26609200000000	0.00000000000000	0.00000000000000	11.10160700000000	0.00000000000000	
20.71492900000000	-49.87599400000000	722.51575800000001	53.59721300000000	0.11393800000000	0.00000000000000	0.11648500000000	-7.54497600000000	121.25592899999999	14.42463500000000	0.40497300000000	0.00000000000000	-0.06991200000000	0.00000000000000	24.06264900000000	0.00000000000000	0.00000000000000	11.15723500000000	0.00000000000000	
20.71659600000000	-50.03234700000000	717.79741899999999	52.63205400000000	0.11389400000000	0.00000000000000	0.11625000000000	-6.35523700000000	126.45935400000000	14.19346500000000	0.40675000000000	0.00000000000000	-0.07024300000000	0.00000000000000	23.86136100000000	0.00000000000000	0.00000000000000	11.20885900000000	0.00000000000000	
20.71825500000000	-50.20984600000000	713.04256799999996	51.65203400000000	0.11386100000000	0.00000000000000	0.11600600000000	-5.14591500000000	131.86064999999999	13.95190400000000	0.40845600000000	0.00000000000000	-0.07056800000000	0.00000000000000	23.66229900000000	0.00000000000000	0.00000000000000	11.25547300000000	0.00000000000000	
20.71992600000000	-50.40849300000000	708.25214900000003	50.65830100000000	0.11383800000000	0.00000000000000	0.11575200000000	-3.91335400000000	137.45188999999999	13.69703500000000	0.41008700000000	0.00000000000000	-0.07088700000000	0.00000000000000	23.46551100000000	0.00000000000000	0.00000000000000	11.29509400000000	0.00000000000000	
20.72159000000000	-50.62819600000000	703.42687400000000	49.65200500000000	0.11382400000000	0.00000000000000	0.11548900000000	-2.65250300000000	143.22083699999999	13.42491400000000	0.41164200000000	0.00000000000000	-0.07120200000000	0.00000000000000	23.27102400000000	0.00000000000000	0.00000000000000	11.32510000000000	0.00000000000000	
20.72326300000000	-50.86876600000000	698.56722400000001	48.63429200000000	0.11381900000000	0.00000000000000	0.11521600000000	-1.35774200000000	149.15265400000001	13.13111600000000	0.41311700000000	0.00000000000000	-0.07151300000000	0.00000000000000	23.07884600000000	0.00000000000000	0.00000000000000	11.34254700000000	0.00000000000000	
20.72492700000000	-51.12991300000000	693.67344200000002	47.60630500000000	0.11382000000000	0.00000000000000	0.11493500000000	-0.02358900000000	155.23145199999999	12.81120700000000	0.41451000000000	0.00000000000000	-0.07182000000000	0.00000000000000	22.88896400000000	0.00000000000000	0.00000000000000	11.34445900000000	0.00000000000000	
20.72661700000000	-51.41124300000000	688.74553700000001	46.56917800000000	0.11382600000000	0.00000000000000	0.11464400000000	1.35473300000000	161.44159500000001	12.46113500000000	0.41582100000000	0.00000000000000	-0.07212300000000	0.00000000000000	22.70134500000000	0.00000000000000	0.00000000000000	11.32807000000000	0.00000000000000	
20.72826000000000	-51.71226100000000	683.78328199999999	45.52403400000000	0.11383600000000	0.00000000000000	0.11434500000000	2.78089800000000	167.76870700000001	12.07751100000000	0.41704600000000	0.00000000000000	-0.07242200000000	0.00000000000000	22.51593500000000	0.00000000000000	0.00000000000000	11.29100200000000	0.00000000000000	
